# xmcd
#
# Track frame offsets: 
#        150
#        28810
#        45118
#        69823
#        86552
#        108262
#        128139
#        150222
#        168212
#        198414
#        222167
#        238287
#
# Disc length: 3427 seconds
#
# Revision: 0
# Processed by: cddbd v1.5.2PL0 Copyright (c) Steve Scherf et al.
# Submitted via: ExactAudioCopy v1.0b3
#
DISCID=8f0d610c
DTITLE=Mong Thi, Le Minh - Niem Tin
DYEAR=2000
DGENRE=
TTITLE0=Le Minh - Niem tin
TTITLE1=Mong Thi - Anh chang de ghet
TTITLE2=Le Minh - Dien
TTITLE3=Mong Thi - Pho xa
TTITLE4=Le Minh - Con lai noi co don
TTITLE5=Mong Thi - Xa la
TTITLE6=Le Minh - Say
TTITLE7=Mong Thi - Cay si
TTITLE8=Le Minh - Xin lam nguoi tinh co don
TTITLE9=Mong Thi - Tinh vang
TTITLE10=hoa tau - Anh muon noi yeu em
TTITLE11=hoa tau - Tinh uom nang he
EXTD=
EXTT0=
EXTT1=
EXTT2=
EXTT3=
EXTT4=
EXTT5=
EXTT6=
EXTT7=
EXTT8=
EXTT9=
EXTT10=
EXTT11=
PLAYORDER=
